<?xml version="1.0" encoding="UTF-8" standalone="no"?>
<!-- Created with Inkscape (http://www.inkscape.org/) -->

<svg
   width="49.171528mm"
   height="51.022137mm"
   viewBox="0 0 49.171528 51.022137"
   version="1.1"
   id="svg1"
   xml:space="preserve"
   xmlns="http://www.w3.org/2000/svg"
   xmlns:svg="http://www.w3.org/2000/svg"><defs
     id="defs1"><meshgradient
       id="meshgradient1"
       gradientUnits="userSpaceOnUse"
       x="34.061134"
       y="57.332199"
       type="bicubic"
       gradientTransform="rotate(34.70992,61.104367,83.732479)"><meshrow
         id="meshrow1"><meshpatch
           id="meshpatch1"><stop
             path="c 18.0288,0  36.0576,0  54.0865,0"
             style="stop-color:#ffffff;stop-opacity:1"
             id="stop1" /><stop
             path="c 0,17.6002  0,35.2004  0,52.8006"
             style="stop-color:#000000;stop-opacity:1"
             id="stop2" /><stop
             path="c -18.0288,0  -36.0576,0  -54.0865,0"
             style="stop-color:#ffffff;stop-opacity:1"
             id="stop3" /><stop
             path="c 0,-17.6002  0,-35.2004  0,-52.8006"
             style="stop-color:#000000;stop-opacity:1"
             id="stop4" /></meshpatch></meshrow></meshgradient><filter
       style="color-interpolation-filters:sRGB"
       id="filter247"
       x="-0.048229648"
       y="-0.046318276"
       width="1.0964593"
       height="1.0926366"><feGaussianBlur
         stdDeviation="0.90120597"
         id="feGaussianBlur247" /></filter></defs><g
     id="layer1"
     transform="translate(-40.988978,-55.716906)"><path
       style="opacity:0.51861;mix-blend-mode:normal;fill:url(#meshgradient1);fill-opacity:1;filter:url(#filter247)"
       d="m 44.664791,104.21519 -0.167152,-0.36092 1.315727,-1.77343 c 0.723642,-0.97538 2.136932,-2.771927 3.140634,-3.992322 3.383469,-4.113937 4.198663,-5.175659 4.573216,-5.956237 0.70954,-1.4787 0.880559,-2.999594 0.559524,-4.975917 -0.437543,-2.693557 -1.508974,-5.251038 -4.683157,-11.178586 -0.765636,-1.429764 -1.615852,-3.030728 -1.889372,-3.557703 -0.27352,-0.526975 -0.905818,-1.735439 -1.405109,-2.685478 -2.338926,-4.450458 -2.957019,-5.899905 -2.95723,-6.93479 -2.05e-4,-1.005951 0.278591,-1.296128 1.954438,-2.034222 0.409464,-0.180342 0.900541,-0.487818 1.091282,-0.68328 0.475037,-0.4868 1.564894,-0.705687 2.716901,-0.545666 0.653587,0.09079 1.40823,0.0433 2.707708,-0.17038 1.001747,-0.164724 2.34389,-0.277735 3.023102,-0.254549 1.352178,0.04616 1.800918,-0.06289 2.964017,-0.720294 1.760617,-0.99513 3.535414,-0.519361 4.699808,1.259875 0.515755,0.78809 0.686124,0.912786 0.956832,0.700315 0.170234,-0.133608 1.502836,-1.637045 1.697554,-1.915169 0.06536,-0.09335 0.244466,-0.110304 0.428369,-0.04054 0.173828,0.06593 0.599779,0.06309 0.946562,-0.0063 0.794514,-0.159052 1.216616,0.02318 2.184042,0.942908 0.683578,0.649874 0.778524,0.709972 1.170795,0.741085 1.287899,0.102164 2.063397,0.271933 2.565971,0.561737 0.470091,0.271068 0.575216,0.391269 0.750045,0.857072 0.188396,0.502068 0.253439,0.56943 0.886927,0.918561 0.416862,0.229744 0.731005,0.469207 0.805042,0.613687 0.156998,0.306338 -0.161121,1.208602 -0.822509,2.332833 -1.013935,1.723494 -1.351517,2.982847 -0.886018,3.305293 0.277258,0.192053 0.995447,-0.28154 1.941214,-1.28009 1.27854,-1.349896 2.121105,-1.816634 3.587927,-1.98753 2.275209,-0.265081 4.434249,0.814288 4.980027,2.489663 0.119223,0.365981 0.330215,0.922646 0.468871,1.237033 0.2671,0.60562 0.355318,1.086631 0.493422,2.690379 0.06657,0.773096 0.170742,1.124122 0.466936,1.573481 0.209686,0.318116 0.479318,0.925922 0.599183,1.35068 0.119867,0.424758 0.43429,1.20131 0.69872,1.725671 0.920474,1.825282 0.934287,2.469455 0.08357,3.897176 l -0.475216,0.797544 0.965175,0.725716 c 1.438994,1.081989 1.519094,1.496211 0.558063,2.885934 -0.615709,0.89036 -0.781225,1.378193 -0.78936,2.32652 -0.01298,1.512518 -0.324783,2.477247 -1.029315,3.184691 -0.07504,0.07535 -0.03396,0.483408 0.09424,0.936031 0.300567,1.061186 0.204166,2.007577 -0.306001,3.004051 -0.250529,0.489333 -0.390281,0.922079 -0.374738,1.16035 0.01363,0.20899 -0.02471,0.695431 -0.08519,1.08098 -0.08774,0.55919 -0.182379,0.779963 -0.46786,1.091351 -0.482594,0.526383 -1.173207,0.879784 -2.131875,1.090909 -1.829949,0.403003 -5.916201,-0.783442 -9.26206,-2.689245 -3.029325,-1.725504 -3.519275,-1.976805 -4.847494,-2.486323 -5.467634,-2.097443 -10.806808,-2.016617 -14.086969,0.213254 -1.593922,1.083557 -3.526465,3.264438 -6.988786,7.886871 l -2.253273,3.00828 z"
       id="path1" /></g></svg>
