<?xml version="1.0" encoding="UTF-8" standalone="no"?>
<!-- Created with Inkscape (http://www.inkscape.org/) -->

<svg
   width="54.08646mm"
   height="52.800564mm"
   viewBox="0 0 54.08646 52.800564"
   version="1.1"
   id="svg1"
   xml:space="preserve"
   xmlns="http://www.w3.org/2000/svg"
   xmlns:svg="http://www.w3.org/2000/svg"><defs
     id="defs1" /><g
     id="layer1"
     transform="translate(-34.061134,-57.332196)"><path
       style="fill:#000000"
       d="m 59.25359,109.93125 -0.342921,-0.20151 0.07176,-2.20704 c 0.03946,-1.21387 0.178257,-3.49547 0.308426,-5.07022 0.4388,-5.308464 0.504359,-6.645438 0.36778,-7.500387 -0.25873,-1.619586 -0.984175,-2.967212 -2.373442,-4.409035 -1.89345,-1.96508 -4.2305,-3.457349 -10.215099,-6.522614 C 45.626568,83.281083 44.016028,82.449149 43.491111,82.1717 42.966194,81.894251 41.75829,81.260883 40.806878,80.764215 36.349986,78.437571 35.016539,77.598016 34.427079,76.747414 33.8541,75.920593 33.91805,75.523302 34.875385,73.962291 c 0.233908,-0.381407 0.462512,-0.913796 0.508009,-1.183087 0.113308,-0.670668 0.884581,-1.471192 1.922702,-1.995625 0.588975,-0.297535 1.182287,-0.76628 2.128841,-1.681888 0.729684,-0.705828 1.768636,-1.562973 2.340182,-1.930672 1.137835,-0.732016 1.444624,-1.077182 2.026405,-2.27989 0.880659,-1.820576 2.610536,-2.440081 4.580856,-1.640499 0.87273,0.354164 1.083786,0.359658 1.185335,0.03085 0.06386,-0.206767 0.30323,-2.201474 0.304927,-2.54098 5.7e-4,-0.113955 0.138153,-0.22988 0.329052,-0.277252 0.18044,-0.04478 0.52897,-0.289665 0.774512,-0.544198 0.562559,-0.583161 1.013314,-0.673712 2.332294,-0.468528 0.931985,0.144982 1.044256,0.140321 1.384437,-0.05747 1.116886,-0.649375 1.851051,-0.951402 2.429211,-0.999347 0.540787,-0.04485 0.69565,-0.0059 1.104606,0.27746 0.440759,0.305446 0.532584,0.323784 1.252143,0.250063 0.473501,-0.04851 0.868096,-0.03054 1.011228,0.04607 0.303495,0.162426 0.555755,1.085272 0.652226,2.38605 0.147895,1.994147 0.58749,3.221619 1.153759,3.221619 0.337278,0 0.657988,-0.798268 0.866855,-2.157662 0.282358,-1.837705 0.709214,-2.701159 1.817696,-3.676884 1.719383,-1.513462 4.108828,-1.855576 5.511477,-0.78912 0.306405,0.232965 0.796827,0.570425 1.089827,0.749912 0.564422,0.345755 0.910839,0.690934 1.937576,1.930649 0.494944,0.597611 0.780458,0.826855 1.279818,1.027589 0.353513,0.142106 0.921261,0.488216 1.261662,0.769132 0.340402,0.280916 1.041058,0.740238 1.557014,1.020714 1.796027,0.976327 2.174188,1.498001 2.287834,3.15607 l 0.06349,0.926216 1.206656,0.04698 c 1.799027,0.07005 2.10074,0.364948 2.102067,2.054596 8.5e-4,1.082514 0.142571,1.577783 0.675882,2.361984 0.850594,1.250747 1.143612,2.221348 0.967288,3.204075 -0.01878,0.104672 0.24735,0.416719 0.610469,0.715796 0.851343,0.701194 1.310992,1.534063 1.459026,2.64371 0.07269,0.544911 0.204223,0.980226 0.352677,1.167245 0.13021,0.164036 0.375685,0.585743 0.545499,0.937126 0.246293,0.509638 0.294204,0.745016 0.236837,1.16355 -0.09698,0.70751 -0.463461,1.391272 -1.131311,2.110713 -1.274822,1.3733 -5.309495,2.724789 -9.145149,3.063338 -3.472783,0.306521 -4.01864,0.378929 -5.400627,0.716398 -5.688974,1.389197 -10.031993,4.495882 -11.458698,8.196733 -0.693275,1.798347 -1.040072,4.691563 -1.254143,10.462933 l -0.139317,3.756 z"
       id="path1" /></g></svg>
